<?xml version="1.0" standalone="no"?>
<!DOCTYPE svg PUBLIC "-//W3C//DTD SVG 20010904//EN"
 "http://www.w3.org/TR/2001/REC-SVG-20010904/DTD/svg10.dtd">
<svg version="1.0" xmlns="http://www.w3.org/2000/svg"
 width="660.000000pt" height="660.000000pt" viewBox="0 0 660.000000 660.000000"
 preserveAspectRatio="xMidYMid meet">

<g transform="translate(0.000000,660.000000) scale(0.100000,-0.100000)"
fill="#000000" stroke="none">
<path d="M2556 5243 c-4 -16 -159 -894 -346 -1953 -187 -1059 -342 -1937 -346
-1953 l-6 -27 376 0 c206 0 377 4 380 8 3 5 46 240 96 523 50 283 93 526 96
542 4 21 87 94 383 337 208 171 383 320 390 333 10 19 11 16 7 -23 -2 -25 -70
-414 -150 -864 -80 -451 -146 -828 -146 -838 0 -17 20 -18 374 -18 l375 0 10
53 c6 28 161 909 346 1957 184 1048 337 1915 340 1928 l5 22 -380 0 c-219 0
-380 -4 -380 -9 0 -21 -262 -1496 -266 -1501 -18 -17 -769 -628 -771 -626 -2
1 81 475 182 1054 102 578 185 1058 185 1067 0 13 -44 15 -374 15 l-374 0 -6
-27z"/>
</g>
</svg>
